<?xml version="1.0" encoding="UTF-8"?>
<svg version="1.1" xmlns="http://www.w3.org/2000/svg" width="256" height="256">
<path d="M0 0 C12.34735277 8.03874502 20.81244206 18.78191736 24.6875 33.1875 C27.809102 48.43935407 25.89671911 63.15357592 17.625 76.37109375 C9.30645819 88.46316764 -1.79800429 96.99031446 -16.3125 100.1875 C-30.70015217 102.61068352 -44.08955883 100.25560741 -56.3125 92.1875 C-57.3125 91.1875 -57.3125 91.1875 -57.42602539 88.68725586 C-57.42078857 87.60323486 -57.41555176 86.51921387 -57.41015625 85.40234375 C-57.40693359 84.23251953 -57.40371094 83.06269531 -57.40039062 81.85742188 C-57.39201172 80.62572266 -57.38363281 79.39402344 -57.375 78.125 C-57.37048828 76.88943359 -57.36597656 75.65386719 -57.36132812 74.38085938 C-57.34949608 71.31635883 -57.33301173 68.25195279 -57.3125 65.1875 C-54.32705516 66.50882423 -53.2869944 67.22150746 -51.25 69.9375 C-47.1433604 75.16063224 -39.84334518 79.0439668 -33.3125 80.1875 C-23.11118993 81.11213583 -14.54597186 79.38034845 -6.3125 73.1875 C-5.6525 73.1875 -4.9925 73.1875 -4.3125 73.1875 C-4.3125 72.5275 -4.3125 71.8675 -4.3125 71.1875 C-3.6525 71.1875 -2.9925 71.1875 -2.3125 71.1875 C-2.3125 70.5275 -2.3125 69.8675 -2.3125 69.1875 C-1.714375 68.630625 -1.11625 68.07375 -0.5 67.5 C5.27000828 61.40027696 7.19959088 52.07536254 7 43.8671875 C5.88028594 34.26563946 1.19011189 26.56841968 -5.625 19.9375 C-11.84509465 15.88720581 -17.89499911 13.54548749 -25.3125 13.1875 C-26.37597656 13.09275391 -26.37597656 13.09275391 -27.4609375 12.99609375 C-36.21718193 12.51987695 -43.82431232 16.06597768 -50.5625 21.5 C-57.57125763 28.25844486 -60.36555672 37.66521845 -60.69726562 47.19702148 C-60.71819049 49.4007912 -60.7247113 51.60473275 -60.71875 53.80859375 C-60.72958618 54.98913834 -60.74042236 56.16968292 -60.75158691 57.38600159 C-60.78563163 61.13239077 -60.8013949 64.878477 -60.8125 68.625 C-60.82715305 73.56148529 -60.86097665 78.49730452 -60.90625 83.43359375 C-60.90322876 84.54850693 -60.90020752 85.6634201 -60.89709473 86.81211853 C-61.04436217 102.36797569 -66.45029557 115.91766317 -77.3125 127.1875 C-77.9725 127.1875 -78.6325 127.1875 -79.3125 127.1875 C-79.46753843 117.8155357 -79.6156934 108.44349357 -79.7554636 99.07128906 C-79.82059736 94.71771353 -79.88795374 90.36419781 -79.96069336 86.01074219 C-80.03102451 81.79623431 -80.09512089 77.5816705 -80.15519524 73.36700439 C-80.17896041 71.77252866 -80.20483673 70.17808271 -80.23303413 68.5836792 C-80.62702163 46.08668923 -80.48375391 24.65546958 -64.3515625 7.06640625 C-46.67635304 -9.22052048 -20.73100635 -11.71615965 0 0 Z " fill="#F62B2D" transform="translate(199.3125,65.8125)"/>
<path d="M0 0 C3.69825283 2.7593775 7.16686849 5.71859701 10.5234375 8.8828125 C9.90532216 13.43597198 8.05577857 17.16741017 5.9609375 21.1953125 C5.63158203 21.84048828 5.30222656 22.48566406 4.96289062 23.15039062 C4.15519495 24.73066478 3.34006137 26.30713355 2.5234375 27.8828125 C-0.03980414 27.51037568 -1.19203095 27.21737158 -2.8984375 25.2109375 C-3.33671875 24.52515625 -3.775 23.839375 -4.2265625 23.1328125 C-9.47256492 15.80152411 -16.77684847 12.63361298 -25.4765625 10.8828125 C-35.05041354 9.68812681 -43.70102456 12.65676404 -51.44140625 18.2265625 C-58.70198276 24.13536181 -62.86695185 31.11017292 -63.859375 40.5078125 C-64.18540518 51.28854365 -62.05053367 59.63797901 -55.22265625 68.06640625 C-48.28783125 75.28048595 -39.53798313 78.65410252 -29.58203125 78.9765625 C-18.55890944 78.35988436 -11.06820752 73.71169643 -3.4765625 65.8828125 C-3.1465625 65.2228125 -2.8165625 64.5628125 -2.4765625 63.8828125 C-1.8165625 63.8828125 -1.1565625 63.8828125 -0.4765625 63.8828125 C-0.2440023 68.27775311 -0.10206176 72.67111536 0.0234375 77.0703125 C0.12398437 78.93913086 0.12398437 78.93913086 0.2265625 80.84570312 C0.41978051 89.85449261 0.41978051 89.85449261 -2.14794922 92.80029297 C-4.22869569 94.12317406 -6.16365684 95.03894308 -8.4765625 95.8828125 C-9.19755127 96.19347656 -9.91854004 96.50414062 -10.66137695 96.82421875 C-22.1669258 101.61928327 -34.80588814 100.00624296 -46.5390625 97.1328125 C-61.39520312 90.81105054 -73.26394025 81.99905648 -79.7890625 66.83203125 C-80.83425269 63.86937816 -81.70235769 60.92693716 -82.4765625 57.8828125 C-82.71246094 56.96628906 -82.94835937 56.04976563 -83.19140625 55.10546875 C-85.39095871 45.08528533 -84.49017148 35.3108587 -80.4765625 25.8828125 C-80.07566406 24.93535156 -79.67476562 23.98789063 -79.26171875 23.01171875 C-72.53786023 8.39058595 -61.48530783 -1.54942713 -46.4765625 -7.1171875 C-30.17613518 -11.86940178 -14.13804911 -9.5773881 0 0 Z " fill="#040000" transform="translate(116.4765625,68.1171875)"/>
<path d="M0 0 C23.39185432 19.38820941 38.1350362 47.86654921 41.28710938 78.04101562 C44.06747936 110.72596355 33.02525593 141.15228486 12.17822266 166.07324219 C-4.67003773 185.547085 -27.44901479 197.07022225 -52.26318359 203.01464844 C-52.95412109 203.20285156 -53.64505859 203.39105469 -54.35693359 203.58496094 C-78.74002083 209.08114863 -107.43810755 203.67061971 -129.26318359 192.01464844 C-130.16182129 191.53535889 -130.16182129 191.53535889 -131.07861328 191.04638672 C-140.70081705 185.82878266 -148.5113708 179.74304186 -156.26318359 172.01464844 C-157.11912109 171.16644531 -157.97505859 170.31824219 -158.85693359 169.44433594 C-165.71008526 162.5244328 -171.33514997 155.42918203 -176.26318359 147.01464844 C-176.86259766 145.99242187 -177.46201172 144.97019531 -178.07958984 143.91699219 C-182.41039495 136.21882242 -185.62361563 128.43797562 -188.26318359 120.01464844 C-188.57255859 119.04011719 -188.88193359 118.06558594 -189.20068359 117.06152344 C-191.64111844 108.47307004 -191.99332801 99.88390189 -192.26318359 91.01464844 C-192.30443359 90.03496094 -192.34568359 89.05527344 -192.38818359 88.04589844 C-193.12609541 57.42255798 -179.40938796 29.67616428 -158.83691406 7.64013672 C-117.11311027 -35.45590511 -45.9071941 -37.04612673 0 0 Z M-88.57568359 -20.17285156 C-89.67481079 -20.04027954 -89.67481079 -20.04027954 -90.79614258 -19.9050293 C-119.06797327 -16.27250868 -146.12794168 -1.08214364 -163.63818359 21.45214844 C-181.49429172 45.30239472 -189.13184946 73.16113724 -185.96289062 102.82568359 C-182.85474651 124.28177653 -174.49090192 143.61060609 -160.26318359 160.01464844 C-159.59931641 160.82289063 -158.93544922 161.63113281 -158.25146484 162.46386719 C-140.85071195 182.95236921 -114.87355465 195.96888308 -88.26318359 199.01464844 C-54.705785 200.86747194 -26.08383716 192.64911975 -0.26318359 171.01464844 C3.44815416 167.71731317 3.44815416 167.71731317 6.73681641 164.01464844 C6.73681641 163.35464844 6.73681641 162.69464844 6.73681641 162.01464844 C7.72681641 161.68464844 8.71681641 161.35464844 9.73681641 161.01464844 C11.38506894 159.12927888 12.87996299 157.2723208 14.36181641 155.26464844 C15.15845703 154.21792969 15.95509766 153.17121094 16.77587891 152.09277344 C18.60821128 149.21652262 19.37741739 147.3607772 19.73681641 144.01464844 C20.39681641 144.01464844 21.05681641 144.01464844 21.73681641 144.01464844 C26.23570866 134.87785322 30.23120123 125.9327085 32.73681641 116.01464844 C33.03587891 114.8403125 33.33494141 113.66597656 33.64306641 112.45605469 C35.44609227 104.30070157 36.01459875 96.42941457 36.04931641 88.07714844 C36.05479492 87.11824707 36.06027344 86.1593457 36.06591797 85.17138672 C36.01264338 79.88709887 35.49172691 75.06586614 34.21166992 69.93823242 C33.64589516 67.64633557 33.35359632 65.35404724 33.04931641 63.01464844 C31.17960917 52.42462665 26.19542952 42.20050839 20.73681641 33.01464844 C20.07681641 33.01464844 19.41681641 33.01464844 18.73681641 33.01464844 C18.67494141 32.33402344 18.61306641 31.65339844 18.54931641 30.95214844 C17.47280255 27.06013681 15.48016609 23.9802009 12.73681641 21.01464844 C12.07681641 21.01464844 11.41681641 21.01464844 10.73681641 21.01464844 C10.65431641 20.43714844 10.57181641 19.85964844 10.48681641 19.26464844 C9.51883854 16.36071484 8.04987357 14.97724239 5.73681641 13.01464844 C5.07681641 13.01464844 4.41681641 13.01464844 3.73681641 13.01464844 C3.48931641 12.43714844 3.24181641 11.85964844 2.98681641 11.26464844 C1.54287941 8.66556185 0.00159653 6.93628006 -2.26318359 5.01464844 C-3.25318359 5.01464844 -4.24318359 5.01464844 -5.26318359 5.01464844 C-5.45654297 4.44359375 -5.64990234 3.87253906 -5.84912109 3.28417969 C-7.85221815 0.06926424 -10.6853242 -1.44482366 -13.88818359 -3.29785156 C-14.54971436 -3.68666504 -15.21124512 -4.07547852 -15.89282227 -4.47607422 C-33.72973584 -15.13872372 -33.72973584 -15.13872372 -53.26318359 -16.98535156 C-53.26318359 -17.64535156 -53.26318359 -18.30535156 -53.26318359 -18.98535156 C-56.07503953 -19.32507957 -58.88746595 -19.65725368 -61.70068359 -19.98535156 C-62.8753418 -20.1284375 -62.8753418 -20.1284375 -64.07373047 -20.27441406 C-72.3444815 -21.22742241 -80.31557452 -21.17938013 -88.57568359 -20.17285156 Z " fill="#F72E2D" transform="translate(203.26318359375,36.9853515625)"/>
<path d="M0 0 C7.84223968 0.95912284 13.82145128 7.12042723 18.57421875 13.1015625 C28.95207613 27.05704966 31.78482061 42.21267018 29.57421875 59.2890625 C26.56093625 73.30175043 17.82433956 85.11841085 6.25 93.3125 C-7.39611016 101.89689511 -21.7777757 103.61314339 -37.42578125 100.09765625 C-42.78936312 98.45047974 -48.94552588 96.05447412 -53 92 C-53.08748207 90.07332493 -53.10697334 88.14348139 -53.09765625 86.21484375 C-53.09443359 85.04501953 -53.09121094 83.87519531 -53.08789062 82.66992188 C-53.07951172 81.43822266 -53.07113281 80.20652344 -53.0625 78.9375 C-53.05798828 77.70193359 -53.05347656 76.46636719 -53.04882812 75.19335938 C-53.03699608 72.12885883 -53.02051173 69.06445279 -53 66 C-50.01455516 67.32132423 -48.9744944 68.03400746 -46.9375 70.75 C-42.8308604 75.97313224 -35.53084518 79.8564668 -29 81 C-18.79868993 81.92463583 -10.23347186 80.19284845 -2 74 C-1.34 74 -0.68 74 0 74 C0 73.34 0 72.68 0 72 C0.66 72 1.32 72 2 72 C2 71.34 2 70.68 2 70 C2.598125 69.443125 3.19625 68.88625 3.8125 68.3125 C6.52063766 65.44961162 7.71773538 62.65098006 9 59 C9.35449219 58.08992188 9.70898438 57.17984375 10.07421875 56.2421875 C14.46344332 43.45953348 16.07438354 25.81284807 10.34765625 13.23046875 C7.41041385 8.36911974 4.0136217 4.0136217 0 0 Z " fill="#B6090D" transform="translate(195,65)"/>
<path d="M0 0 C0.66 0 1.32 0 2 0 C2 8.91 2 17.82 2 27 C-1.279375 28.670625 -1.279375 28.670625 -4.625 30.375 C-5.30127441 30.72224121 -5.97754883 31.06948242 -6.67431641 31.42724609 C-19.12775804 37.71016148 -32.55687777 38.66337184 -46 35 C-53.99141384 31.71145945 -61.38819014 27.60566488 -68 22 C-66.3383196 17.87582937 -63.37661982 14.93445961 -60.375 11.75 C-59.859375 11.19570312 -59.34375 10.64140625 -58.8125 10.0703125 C-57.54574965 8.7097288 -56.27342185 7.35434163 -55 6 C-53.91332031 6.72316406 -53.91332031 6.72316406 -52.8046875 7.4609375 C-51.83789062 8.09257812 -50.87109375 8.72421875 -49.875 9.375 C-48.44800781 10.31472656 -48.44800781 10.31472656 -46.9921875 11.2734375 C-38.82642856 15.98527229 -29.94039516 16.91752521 -20.8125 14.875 C-12.21654338 12.39838718 -6.98660224 8.54593445 -1.4453125 1.57421875 C-0.96835938 1.05472656 -0.49140625 0.53523437 0 0 Z " fill="#060100" transform="translate(114,170)"/>
<path d="M0 0 C2.98544484 1.32132423 4.0255056 2.03400746 6.0625 4.75 C11.68439255 11.67970441 19.62321032 14.33161415 28.1875 15.375 C30.45616893 15.6057121 32.72658364 15.82205378 35 16 C35 16.66 35 17.32 35 18 C38.95826931 18.05880857 42.91642392 18.09386513 46.875 18.125 C48.53789062 18.15013672 48.53789062 18.15013672 50.234375 18.17578125 C57.07872779 18.21604215 63.35514827 17.66732206 70 16 C64.94077311 25.61083905 54.56890575 30.96284868 44.56640625 34.125 C29.98320694 37.70291527 15.93620733 35.9887247 2.9765625 28.3046875 C1 27 1 27 0 26 C-0.08748207 24.07332493 -0.10697334 22.14348139 -0.09765625 20.21484375 C-0.09443359 19.04501953 -0.09121094 17.87519531 -0.08789062 16.66992188 C-0.07951172 15.43822266 -0.07113281 14.20652344 -0.0625 12.9375 C-0.05798828 11.70193359 -0.05347656 10.46636719 -0.04882812 9.19335938 C-0.03699608 6.12885883 -0.02051173 3.06445279 0 0 Z " fill="#F52B2D" transform="translate(142,131)"/>
<path d="M0 0 C0.66 0.33 1.32 0.66 2 1 C1.48050781 1.8971875 0.96101563 2.794375 0.42578125 3.71875 C-9.58995457 21.45905596 -13.39134897 38.86405979 -13.125 59.25 C-13.11493575 60.59244113 -13.10581607 61.93488969 -13.09765625 63.27734375 C-13.07433912 66.51842489 -13.04161552 69.75911102 -13 73 C-15.36400148 69.45399778 -15.24575178 67.95013622 -15.23046875 63.75 C-15.22853516 62.50089844 -15.22660156 61.25179687 -15.22460938 59.96484375 C-15.21236328 58.65644531 -15.20011719 57.34804687 -15.1875 56 C-15.18685547 54.72253906 -15.18621094 53.44507813 -15.18554688 52.12890625 C-15.15133085 44.70022813 -14.83363785 37.38282728 -14 30 C-14.66 30.99 -15.32 31.98 -16 33 C-16.66 32.67 -17.32 32.34 -18 32 C-17.40666138 29.74712037 -16.79990323 27.49777215 -16.1875 25.25 C-15.85105469 23.99703125 -15.51460937 22.7440625 -15.16796875 21.453125 C-14.11736516 18.34699265 -13.14223816 16.43073441 -11 14 C-11.33 16.64 -11.66 19.28 -12 22 C-9.0645386 20.5322693 -8.85946385 18.52343769 -7.6875 15.5 C-5.50509223 10.06996161 -2.98406087 5.02846003 0 0 Z " fill="#F42622" transform="translate(31,69)"/>
<path d="M0 0 C0.33 0 0.66 0 1 0 C1.73458346 3.94938915 2.12805655 7.68774681 2.1328125 11.703125 C2.13410156 12.76660156 2.13539063 13.83007812 2.13671875 14.92578125 C2.13285156 16.02277344 2.12898437 17.11976562 2.125 18.25 C2.12886719 19.33152344 2.13273438 20.41304687 2.13671875 21.52734375 C2.1145739 39.8854261 2.1145739 39.8854261 -1 43 C-1.66 42.67 -2.32 42.34 -3 42 C-3.05406122 40.06280622 -3.09282025 38.12518079 -3.125 36.1875 C-3.14820313 35.10855469 -3.17140625 34.02960938 -3.1953125 32.91796875 C-3 30 -3 30 -1 27 C-0.74001725 24.31857229 -0.74001725 24.31857229 -0.83984375 21.30859375 C-0.85080078 20.19935547 -0.86175781 19.09011719 -0.87304688 17.94726562 C-0.89431641 16.78904297 -0.91558594 15.63082031 -0.9375 14.4375 C-0.97183638 12.14459277 -1.0019991 9.851618 -1.02734375 7.55859375 C-1.04531006 6.54079834 -1.06327637 5.52300293 -1.08178711 4.47436523 C-1 2 -1 2 0 0 Z " fill="#FB3434" transform="translate(241,107)"/>
<path d="M0 0 C0.33 0 0.66 0 1 0 C1.18292026 4.1157059 0.91193297 7.71676643 0.0625 11.75 C-1.58123797 20.06195157 -1.6674469 28.55490143 -2 37 C-2.66 36.67 -3.32 36.34 -4 36 C-4.32042765 4.5980901 -4.32042765 4.5980901 0 0 Z " fill="#FE3A3C" transform="translate(17,98)"/>
<path d="M0 0 C0.45375 0.66 0.9075 1.32 1.375 2 C1.91125 2.66 2.4475 3.32 3 4 C3.66 4 4.32 4 5 4 C4.41632611 10.30367803 2.95928381 15.98660063 1 22 C0.67 22 0.34 22 0 22 C-0.33 20.35 -0.66 18.7 -1 17 C-1.66 17 -2.32 17 -3 17 C-2.36934845 11.2190275 -1.34844868 5.6556294 0 0 Z " fill="#F52C2A" transform="translate(237,144)"/>
<path d="M0 0 C1.36754478 4.10263434 0.07030568 5.48956668 -1.8125 9.3125 C-3.85571157 13.49113458 -5.62123959 17.55433838 -7 22 C-7.99 21.67 -8.98 21.34 -10 21 C-6.93346514 6.34152841 -6.93346514 6.34152841 -4 2 C-1.8125 0.625 -1.8125 0.625 0 0 Z " fill="#FB3333" transform="translate(28,71)"/>
<path d="M0 0 C4.5 2.25 4.5 2.25 6 6 C5.34 6 4.68 6 4 6 C3.67 5.34 3.34 4.68 3 4 C2.97106068 7.62498334 2.95322208 11.24993713 2.9375 14.875 C2.92912109 15.90753906 2.92074219 16.94007813 2.91210938 18.00390625 C2.90727539 19.48310547 2.90727539 19.48310547 2.90234375 20.9921875 C2.89710693 21.90339355 2.89187012 22.81459961 2.88647461 23.75341797 C2.85114435 26.03687509 2.85114435 26.03687509 4 28 C2.68 27.34 1.36 26.68 0 26 C0 17.42 0 8.84 0 0 Z " fill="#F62521" transform="translate(142,131)"/>
<path d="M0 0 C0.33 0 0.66 0 1 0 C2.20484722 5.63526965 2.1129643 11.14536115 2.0625 16.875 C2.05798828 17.84953125 2.05347656 18.8240625 2.04882812 19.828125 C2.03710906 22.21881434 2.02070219 24.6093744 2 27 C1.34 27 0.68 27 0 27 C-0.19622046 22.87536584 -0.38050216 18.75028427 -0.5625 14.625 C-0.61857422 13.449375 -0.67464844 12.27375 -0.73242188 11.0625 C-0.78076172 9.94101563 -0.82910156 8.81953125 -0.87890625 7.6640625 C-0.9260376 6.62717285 -0.97316895 5.5902832 -1.02172852 4.52197266 C-1 2 -1 2 0 0 Z " fill="#FE3A3D" transform="translate(241,107)"/>
<path d="M0 0 C1.46726798 3.81489674 0.43336419 6.29011622 -1 10 C-1.99 9.67 -2.98 9.34 -4 9 C-2.25 2.25 -2.25 2.25 0 0 Z " fill="#FE393B" transform="translate(22,83)"/>
<path d="M0 0 C0.66 0 1.32 0 2 0 C0.70700306 2.88437779 -0.65941363 4.87219421 -3 7 C-3.66 6.67 -4.32 6.34 -5 6 C-3.38405168 3.95880212 -1.7143618 1.95927063 0 0 Z " fill="#E9221F" transform="translate(137,71)"/>
</svg>
