<?xml version="1.0" encoding="UTF-8"?>
<svg version="1.1" xmlns="http://www.w3.org/2000/svg" width="380" height="87">
<path d="M0 0 C2.07518217 0.1059781 4.14237822 0.14332762 6.2199707 0.16723633 C14.93193079 0.34766115 24.10538231 0.82536732 31.27661133 6.29418945 C34.98402596 10.18697481 35.66539754 12.5178957 36.08911133 17.85668945 C35.96120032 21.8595515 35.02847412 24.54139526 32.77661133 27.91918945 C30.79661133 29.56918945 28.81661133 31.21918945 26.77661133 32.91918945 C30.40661133 36.87918945 34.03661133 40.83918945 37.77661133 44.91918945 C42.20216333 38.75812686 46.25486742 32.63809257 49.77661133 25.91918945 C50.43661133 25.91918945 51.09661133 25.91918945 51.77661133 25.91918945 C52.01766602 25.23856445 52.2587207 24.55793945 52.50708008 23.85668945 C54.03746594 20.31561202 56.0018127 17.14846468 58.08911133 13.91918945 C58.46745117 13.3159082 58.84579102 12.71262695 59.2355957 12.09106445 C61.7148095 8.23171302 64.40764376 5.07361003 67.77661133 1.91918945 C68.10661133 1.58918945 68.43661133 1.25918945 68.77661133 0.91918945 C75.82129546 0.33213244 75.82129546 0.33213244 79.19848633 2.4074707 C82.59450463 5.71601581 84.83675017 9.37627223 87.27661133 13.41918945 C88.3218486 15.1181148 89.36878555 16.81599536 90.41723633 18.51293945 C90.96057617 19.3946582 91.50391602 20.27637695 92.0637207 21.18481445 C93.81978641 23.98811205 95.62385412 26.75383352 97.44848633 29.51293945 C98.0459668 30.4172168 98.64344727 31.32149414 99.2590332 32.25317383 C100.42224853 34.00763673 101.59010063 35.75903572 102.76293945 37.50708008 C103.28823242 38.30307617 103.81352539 39.09907227 104.35473633 39.91918945 C104.82298828 40.62043945 105.29124023 41.32168945 105.77368164 42.04418945 C106.77661133 43.91918945 106.77661133 43.91918945 106.77661133 46.91918945 C90.93661133 46.91918945 75.09661133 46.91918945 58.77661133 46.91918945 C59.43661133 45.26918945 60.09661133 43.61918945 60.77661133 41.91918945 C61.01637695 41.18055664 61.25614258 40.44192383 61.50317383 39.6809082 C62.64971521 37.0338931 63.45782905 35.68731471 65.77661133 33.91918945 C71.18870166 33.20664289 76.3506505 33.46011874 81.77661133 33.91918945 C81.16301758 33.0065332 80.54942383 32.09387695 79.91723633 31.15356445 C73.77661133 21.87539383 73.77661133 21.87539383 73.77661133 18.91918945 C73.11661133 18.91918945 72.45661133 18.91918945 71.77661133 18.91918945 C71.5078418 19.64605957 71.23907227 20.37292969 70.9621582 21.12182617 C69.79518169 23.87537165 68.4492226 26.1819908 66.80786133 28.67700195 C66.23680664 29.54969727 65.66575195 30.42239258 65.07739258 31.3215332 C64.48313477 32.22000977 63.88887695 33.11848633 63.27661133 34.04418945 C62.68235352 34.95040039 62.0880957 35.85661133 61.47583008 36.7902832 C59.25468652 40.17464415 57.02211127 43.55093954 54.77661133 46.91918945 C51.83451053 47.34382256 49.10819377 47.57784976 46.15161133 47.66918945 C45.3036499 47.69795166 44.45568848 47.72671387 43.58203125 47.75634766 C41.83220157 47.8052128 40.08206116 47.84395028 38.33178711 47.87280273 C36.7021213 47.90238772 35.07261369 47.94851655 33.4440918 48.01635742 C28.74362889 48.20079146 24.35464106 48.17307872 19.77661133 46.91918945 C17.53187066 44.50338119 15.99654761 41.97129533 14.25708008 39.17700195 C8.81655412 34.22483817 -0.26040452 35.68053879 -7.22338867 35.91918945 C-7.22338867 39.54918945 -7.22338867 43.17918945 -7.22338867 46.91918945 C-11.84338867 46.91918945 -16.46338867 46.91918945 -21.22338867 46.91918945 C-21.22338867 38.99918945 -21.22338867 31.07918945 -21.22338867 22.91918945 C-18.4312793 22.85860352 -15.63916992 22.79801758 -12.76245117 22.7355957 C-10.06515737 22.67382828 -7.36790646 22.61043149 -4.6706543 22.546875 C-2.79276325 22.50350157 -0.91483216 22.46182827 0.96313477 22.421875 C3.65889573 22.36423069 6.3544546 22.30051964 9.05004883 22.2355957 C9.89280365 22.21888321 10.73555847 22.20217072 11.60385132 22.18495178 C15.82527743 22.18682802 15.82527743 22.18682802 19.77661133 20.91918945 C19.44661133 19.26918945 19.11661133 17.61918945 18.77661133 15.91918945 C-1.02338867 15.42418945 -1.02338867 15.42418945 -21.22338867 14.91918945 C-18.15889719 2.66122354 -12.11307115 -0.61939414 0 0 Z " fill="#030000" transform="translate(89.223388671875,29.080810546875)"/>
<path d="M0 0 C0.99 0.495 0.99 0.495 2 1 C-3.5465422 6.57202375 -9.09710118 12.14002311 -14.65039062 17.70532227 C-16.5370113 19.5963849 -18.42214482 21.48889619 -20.30664062 23.38208008 C-23.02494285 26.11259455 -25.74653323 28.83979508 -28.46875 31.56640625 C-29.30241089 32.40522842 -30.13607178 33.2440506 -30.99499512 34.10829163 C-35.36172506 38.47543373 -39.77658883 42.62721345 -44.58508301 46.50743103 C-46.34398817 48.02009387 -46.34398817 48.02009387 -46 51 C-44.7953144 53.21975011 -44.7953144 53.21975011 -43.15625 55.5625 C-42.56972656 56.44164062 -41.98320312 57.32078125 -41.37890625 58.2265625 C-40.75886719 59.14179687 -40.13882813 60.05703125 -39.5 61 C-38.27496765 62.80825981 -37.05591272 64.62058796 -35.84375 66.4375 C-35.29912109 67.24058594 -34.75449219 68.04367188 -34.19335938 68.87109375 C-33 71 -33 71 -33 74 C-39.27 74 -45.54 74 -52 74 C-52.66 72.68 -53.32 71.36 -54 70 C-54.66 70 -55.32 70 -56 70 C-59 64.25 -59 64.25 -59 62 C-60.23121385 63.06012706 -61.45985685 64.12324005 -62.6875 65.1875 C-63.37199219 65.77917969 -64.05648438 66.37085937 -64.76171875 66.98046875 C-67.11757842 68.9893923 -67.11757842 68.9893923 -69.125 71.71875 C-73.36959825 75.08674644 -77.06410209 74.55359248 -82.3125 74.3125 C-83.24384766 74.28994141 -84.17519531 74.26738281 -85.13476562 74.24414062 C-87.4248396 74.18542078 -89.71157875 74.10336858 -92 74 C-92 71 -92 71 -90.84179688 69.48535156 C-90.03838867 68.69596191 -90.03838867 68.69596191 -89.21875 67.890625 C-88.62723145 67.30394043 -88.03571289 66.71725586 -87.42626953 66.11279297 C-86.79060059 65.49807129 -86.15493164 64.88334961 -85.5 64.25 C-84.86304199 63.62109863 -84.22608398 62.99219727 -83.56982422 62.34423828 C-79.63542883 58.48783091 -75.61855933 54.80516099 -71.2578125 51.4296875 C-69.55964306 49.81684203 -69.55964306 49.81684203 -70 46 C-70.98721613 44.04817413 -70.98721613 44.04817413 -72.40625 42.1796875 C-72.90253906 41.47972656 -73.39882813 40.77976563 -73.91015625 40.05859375 C-74.43480469 39.33800781 -74.95945312 38.61742187 -75.5 37.875 C-76.53529302 36.43779962 -77.56674857 34.99782458 -78.59375 33.5546875 C-79.05458984 32.92030762 -79.51542969 32.28592773 -79.99023438 31.63232422 C-81 30 -81 30 -81 28 C-77.77177349 27.79585225 -74.54520809 27.67212124 -71.3125 27.5625 C-70.40048828 27.50384766 -69.48847656 27.44519531 -68.54882812 27.38476562 C-61.86968432 27.21475106 -61.86968432 27.21475106 -59.23974609 29.58935547 C-57.85546875 31.52734375 -57.85546875 31.52734375 -56 35 C-48.84947809 31.67457656 -42.43494794 27.4843482 -35.875 23.125 C-33.5718317 21.60706287 -31.26617869 20.09291165 -28.9609375 18.578125 C-27.79263326 17.80925994 -26.62433896 17.04037977 -25.45605469 16.27148438 C-20.15181577 12.78346987 -14.83494299 9.31589095 -9.5 5.875 C-8.10370361 4.96065186 -8.10370361 4.96065186 -6.67919922 4.02783203 C-5.39940186 3.20581299 -5.39940186 3.20581299 -4.09375 2.3671875 C-3.34802734 1.88362793 -2.60230469 1.40006836 -1.83398438 0.90185547 C-1.22876953 0.60424316 -0.62355469 0.30663086 0 0 Z " fill="#050000" transform="translate(370,2)"/>
<path d="M0 0 C1.08172485 0.00424484 1.08172485 0.00424484 2.18530273 0.00857544 C4.45704747 0.01964554 6.72837727 0.04472355 9 0.0703125 C10.55337967 0.0803594 12.1067656 0.08948223 13.66015625 0.09765625 C17.44026062 0.11954139 21.22006032 0.15397736 25 0.1953125 C24.23055391 3.62374765 23.03965091 5.95817607 21.0625 8.8828125 C20.53785156 9.67042969 20.01320312 10.45804688 19.47265625 11.26953125 C18 13.1953125 18 13.1953125 16 14.1953125 C14.08799599 14.30165697 12.17266341 14.35073546 10.2578125 14.37109375 C9.10925781 14.39494141 7.96070313 14.41878906 6.77734375 14.44335938 C4.35043711 14.48618714 1.92329916 14.51751407 -0.50390625 14.53710938 C-1.65503906 14.56482422 -2.80617188 14.59253906 -3.9921875 14.62109375 C-5.04776855 14.63567627 -6.10334961 14.65025879 -7.19091797 14.6652832 C-10.68268369 15.3241241 -11.85510838 16.40707813 -14 19.1953125 C-14.86045982 22.63715176 -15.33096265 25.08207451 -14.3125 28.5078125 C-12.29209387 31.10547752 -10.03554666 32.04510993 -6.80175781 32.51416016 C-6.02670898 32.54558105 -5.25166016 32.57700195 -4.453125 32.609375 C-3.60878906 32.64804687 -2.76445313 32.68671875 -1.89453125 32.7265625 C-0.58548828 32.77296875 -0.58548828 32.77296875 0.75 32.8203125 C1.63816406 32.85898437 2.52632812 32.89765625 3.44140625 32.9375 C5.6273998 33.03152123 7.81339062 33.11717393 10 33.1953125 C10 31.5453125 10 29.8953125 10 28.1953125 C0.1 28.6903125 0.1 28.6903125 -10 29.1953125 C-10.33 28.5353125 -10.66 27.8753125 -11 27.1953125 C-8.750106 23.32175664 -6.41937933 20.11383561 -3 17.1953125 C1.73956095 15.96981403 6.14506485 16.2396666 11 16.5703125 C15.29 16.7765625 19.58 16.9828125 24 17.1953125 C24 26.7653125 24 36.3353125 24 46.1953125 C19.2158786 46.28785864 14.43494294 46.36726764 9.65063477 46.41503906 C8.02813107 46.43498063 6.40569758 46.46214424 4.78344727 46.49707031 C-16.89041973 46.95153314 -16.89041973 46.95153314 -24.82421875 39.56640625 C-29.2924194 32.53156623 -31.19238605 27.51521968 -30 19.1953125 C-29.835 17.9784375 -29.67 16.7615625 -29.5 15.5078125 C-29.335 14.7446875 -29.17 13.9815625 -29 13.1953125 C-28.34 13.1953125 -27.68 13.1953125 -27 13.1953125 C-26.75507813 12.43605469 -26.51015625 11.67679688 -26.2578125 10.89453125 C-24.83226709 7.83536392 -23.67482946 6.82721388 -20.875 5.0078125 C-20.15054687 4.51925781 -19.42609375 4.03070313 -18.6796875 3.52734375 C-12.66606303 0.53806395 -6.63115066 -0.100582 0 0 Z " fill="#DF000E" transform="translate(38,29.8046875)"/>
<path d="M0 0 C2.76220703 -0.37231445 2.76220703 -0.37231445 6.2578125 -0.36328125 C7.52367187 -0.36263672 8.78953125 -0.36199219 10.09375 -0.36132812 C10.75632813 -0.35302979 11.41890625 -0.34473145 12.1015625 -0.33618164 C14.09622295 -0.3128368 16.0911465 -0.3173475 18.0859375 -0.32226562 C35.79362157 -0.22369046 35.79362157 -0.22369046 43 6 C46.70705057 11.18066073 47.70863399 15.72352755 47 22 C45.18007984 27.15644045 42.43794532 29.86733271 38 33 C33.77183915 34.69964858 30.26826578 35.24027986 25.7265625 35.1953125 C23.99599609 35.18564453 23.99599609 35.18564453 22.23046875 35.17578125 C21.04066406 35.15902344 19.85085937 35.14226562 18.625 35.125 C17.41199219 35.11597656 16.19898438 35.10695312 14.94921875 35.09765625 C11.96606071 35.07416682 8.98300468 35.03829821 6 35 C6 38.63 6 42.26 6 46 C1.05 46 -3.9 46 -9 46 C-9 38.08 -9 30.16 -9 22 C4.53 21.67 18.06 21.34 32 21 C32 19.35 32 17.7 32 16 C28.72684491 14.36342246 25.09377769 14.7569193 21.4921875 14.68359375 C20.23125778 14.6524221 20.23125778 14.6524221 18.94485474 14.62062073 C16.25498765 14.55514561 13.56502157 14.4962498 10.875 14.4375 C9.05337511 14.39431284 7.23176029 14.35069848 5.41015625 14.30664062 C0.94020606 14.19946632 -3.52984386 14.09819315 -8 14 C-7.42415568 11.61435923 -6.77772405 9.33317216 -6 7 C-5.34 7 -4.68 7 -4 7 C-3.71125 6.401875 -3.4225 5.80375 -3.125 5.1875 C-2 3 -2 3 0 0 Z " fill="#DE000E" transform="translate(208,30)"/>
<path d="M0 0 C4.62 0 9.24 0 14 0 C14 15.18 14 30.36 14 46 C9.38 46 4.76 46 0 46 C0 30.82 0 15.64 0 0 Z " fill="#000000" transform="translate(260,30)"/>
<path d="M0 0 C0.66 0.33 1.32 0.66 2 1 C-3.5465422 6.57202375 -9.09710118 12.14002311 -14.65039062 17.70532227 C-16.5370113 19.5963849 -18.42214482 21.48889619 -20.30664062 23.38208008 C-23.02494285 26.11259455 -25.74653323 28.83979508 -28.46875 31.56640625 C-29.30241089 32.40522842 -30.13607178 33.2440506 -30.99499512 34.10829163 C-33.31172694 36.42524211 -35.64697284 38.71995495 -38 41 C-38.73613525 41.71848114 -39.47227051 42.43696228 -40.23071289 43.17721558 C-40.92865967 43.82892731 -41.62660645 44.48063904 -42.34570312 45.15209961 C-42.95579224 45.72826523 -43.56588135 46.30443085 -44.19445801 46.89805603 C-46 48 -46 48 -48.0916748 47.88111877 C-51.33848889 46.38198809 -52.67065986 43.17044502 -54 40 C-54.37197136 38.34152896 -54.71401948 36.67544144 -55 35 C-53.87464844 34.32195313 -52.74929688 33.64390625 -51.58984375 32.9453125 C-44.2227662 28.48675975 -36.88723008 24.00764341 -29.75 19.1875 C-23.27378931 14.82643055 -16.74843039 10.54513636 -10.1875 6.3125 C-9.21329102 5.67530029 -8.23908203 5.03810059 -7.23535156 4.3815918 C-6.32624023 3.79804932 -5.41712891 3.21450684 -4.48046875 2.61328125 C-3.66473389 2.08516846 -2.84899902 1.55705566 -2.00854492 1.01293945 C-1.01431519 0.51153442 -1.01431519 0.51153442 0 0 Z " fill="#DE000E" transform="translate(370,2)"/>
<path d="" fill="#890009" transform="translate(0,0)"/>
</svg>
